<?xml version="1.0" encoding="utf-8"?>
<svg xmlns="http://www.w3.org/2000/svg" xmlns:svg="http://www.w3.org/2000/svg" version="1.1" viewBox="0 0 1400 340">
	<title>The titlepage for the Standard Ebooks edition of Sibyl, by Benjamin Disraeli</title>
	<g>
		<path d="m 612.42324,64.027777 0,9.000365 q -5.25402,-2.512792 -9.9141,-3.746345 -4.66009,-1.233552 -9.00037,-1.233552 -7.53838,0 -11.65022,2.923976 -4.06615,2.923977 -4.06615,8.315059 0,4.523026 2.69554,6.85307 2.74122,2.284357 10.32529,3.700658 l 5.57383,1.142178 q 10.32529,1.964547 15.21382,6.944445 4.93421,4.934209 4.93421,13.249269 0,9.91411 -6.67033,15.03107 -6.62463,5.11696 -19.46271,5.11696 -4.84284,0 -10.3253,-1.09649 -5.43677,-1.0965 -11.28472,-3.24379 l 0,-9.50293 q 5.61952,3.15242 11.0106,4.75147 5.39108,1.59905 10.59942,1.59905 7.90387,0 12.19846,-3.10673 4.29459,-3.10672 4.29459,-8.8633 0,-5.02559 -3.10672,-7.85819 -3.06104,-2.8326 -10.09686,-4.248904 L 588.072,98.658625 q -10.32529,-2.055921 -14.93969,-6.441886 -4.6144,-4.385965 -4.6144,-12.198465 0,-9.046053 6.35051,-14.254386 6.3962,-5.208334 17.58955,-5.208334 4.79715,0 9.77704,0.868056 4.9799,0.868055 10.18823,2.604167 z"/>
		<path d="m 635.92654,61.789107 9.2288,0 0,68.210893 -9.2288,0 0,-68.210893 z"/>
		<path d="m 677.75036,97.425073 0,24.990867 14.80264,0 q 7.447,0 11.0106,-3.06104 3.60928,-3.10673 3.60928,-9.45724 0,-6.3962 -3.60928,-9.41155 Q 700,97.425073 692.553,97.425073 l -14.80264,0 z m 0,-28.051902 0,20.559211 13.66046,0 q 6.76169,0 10.05117,-2.512792 3.33516,-2.55848 3.33516,-7.766813 0,-5.162646 -3.33516,-7.721126 -3.28948,-2.55848 -10.05117,-2.55848 l -13.66046,0 z m -9.2288,-7.584064 23.57456,0 q 10.55373,0 16.26462,4.385965 5.7109,4.385965 5.7109,12.472588 0,6.259137 -2.92398,9.959795 -2.92398,3.700658 -8.58918,4.614401 6.80738,1.461988 10.55373,6.122076 3.79203,4.614398 3.79203,11.558848 0,9.13742 -6.21345,14.11732 Q 704.47734,130 693.00987,130 l -24.48831,0 0,-68.210893 z"/>
		<path d="m 723.18348,61.789107 9.91411,0 18.91447,28.051901 18.77741,-28.051901 9.91411,0 -24.12281,35.72734 0,32.483553 -9.27448,0 0,-32.483553 -24.12281,-35.72734 z"/>
		<path d="m 794.74964,61.789107 9.2288,0 0,60.444083 33.21455,0 0,7.76681 -42.44335,0 0,-68.210893 z"/>
	</g>
	<g>
		<path d="m 330.88131,265.56881 0,18.74314 11.10197,0 q 5.58525,0 8.25795,-2.29578 2.70696,-2.33004 2.70696,-7.09292 0,-4.79715 -2.70696,-7.05867 -2.6727,-2.29577 -8.25795,-2.29577 l -11.10197,0 z m 0,-21.03893 0,15.41941 10.24534,0 q 5.07127,0 7.53837,-1.8846 2.50138,-1.91886 2.50138,-5.82511 0,-3.87198 -2.50138,-5.79084 -2.4671,-1.91886 -7.53837,-1.91886 l -10.24534,0 z m -6.9216,-5.68805 17.68092,0 q 7.91529,0 12.19846,3.28948 4.28317,3.28947 4.28317,9.35444 0,4.69435 -2.19298,7.46984 -2.19298,2.7755 -6.44189,3.4608 5.10554,1.09649 7.9153,4.59156 2.84402,3.4608 2.84402,8.66913 0,6.85307 -4.66008,10.588 Q 350.92654,290 342.32594,290 l -18.36623,0 0,-51.15817 z"/>
		<path d="m 377.06826,238.84183 32.34649,0 0,5.82511 -25.42489,0 0,15.14529 24.36266,0 0,5.82511 -24.36266,0 0,18.53755 26.04167,0 0,5.82511 -32.96327,0 0,-51.15817 z"/>
		<path d="m 426.47616,238.84183 9.32017,0 22.68366,42.79742 0,-42.79742 6.71601,0 0,51.15817 -9.32017,0 -22.68367,-42.79742 0,42.79742 -6.716,0 0,-51.15817 z"/>
		<path d="m 483.97066,238.84183 6.9216,0 0,47.59457 q 0,9.25165 -3.52933,13.43202 -3.49506,4.18037 -11.2733,4.18037 l -2.63843,0 0,-5.82511 2.15872,0 q 4.59155,0 6.47615,-2.5699 1.88459,-2.5699 1.88459,-9.21738 l 0,-47.59457 z"/>
		<path d="m 525.5318,245.66064 -9.38871,25.45915 18.81168,0 -9.42297,-25.45915 z m -3.90625,-6.81881 7.84676,0 L 548.9693,290 l -7.19573,0 -4.66009,-13.12363 -23.06058,0 -4.66008,13.12363 -7.29852,0 19.53125,-51.15817 z"/>
		<path d="m 561.40488,238.84183 10.31387,0 13.0551,34.8136 13.12363,-34.8136 10.31387,0 0,51.15817 -6.75027,0 0,-44.92187 -13.19216,35.08771 -6.95587,0 -13.19216,-35.08771 0,44.92187 -6.71601,0 0,-51.15817 z"/>
		<path d="m 626.98601,238.84183 6.9216,0 0,51.15817 -6.9216,0 0,-51.15817 z"/>
		<path d="m 652.6823,238.84183 9.32018,0 22.68366,42.79742 0,-42.79742 6.71601,0 0,51.15817 -9.32018,0 -22.68366,-42.79742 0,42.79742 -6.71601,0 0,-51.15817 z"/>
		<path d="m 744.43941,244.52988 0,39.78207 8.36075,0 q 10.58799,0 15.48794,-4.79715 4.93421,-4.79715 4.93421,-15.14528 0,-10.27961 -4.93421,-15.04249 -4.89995,-4.79715 -15.48794,-4.79715 l -8.36075,0 z m -6.9216,-5.68805 14.22012,0 q 14.87117,0 21.82703,6.20203 6.95587,6.16776 6.95587,19.32566 0,13.22642 -6.99013,19.42845 Q 766.54056,290 751.73793,290 l -14.22012,0 0,-51.15817 z"/>
		<path d="m 796.52001,238.84183 6.9216,0 0,51.15817 -6.9216,0 0,-51.15817 z"/>
		<path d="m 852.88376,240.52083 0,6.75028 q -3.94052,-1.8846 -7.43558,-2.80976 -3.49507,-0.92517 -6.75028,-0.92517 -5.65378,0 -8.73766,2.19299 -3.04962,2.19298 -3.04962,6.23629 0,3.39227 2.02166,5.1398 2.05592,1.71327 7.74397,2.7755 l 4.18037,0.85663 q 7.74397,1.47341 11.41036,5.20833 3.70066,3.70066 3.70066,9.93696 0,7.43558 -5.00274,11.2733 -4.96848,3.83772 -14.59704,3.83772 -3.63213,0 -7.74397,-0.82237 -4.07758,-0.82237 -8.46354,-2.43284 l 0,-7.1272 q 4.21464,2.36431 8.25795,3.5636 4.04331,1.19929 7.94956,1.19929 5.9279,0 9.14885,-2.33005 3.22094,-2.33004 3.22094,-6.64747 0,-3.76919 -2.33004,-5.89364 -2.29578,-2.12446 -7.57265,-3.18668 l -4.21463,-0.82237 q -7.74397,-1.54194 -11.20477,-4.83141 -3.4608,-3.28948 -3.4608,-9.14885 0,-6.78454 4.76288,-10.69079 4.79715,-3.90625 13.19216,-3.90625 3.59786,0 7.33278,0.65104 3.73493,0.65104 7.64118,1.95312 z"/>
		<path d="m 896.02109,266.01425 q 2.22725,0.75384 4.31743,3.22095 2.12445,2.4671 4.24891,6.78454 L 911.61182,290 l -7.43558,0 -6.54468,-13.12363 q -2.53564,-5.1398 -4.93421,-6.8188 -2.36431,-1.67901 -6.47615,-1.67901 l -7.53838,0 0,21.62144 -6.9216,0 0,-51.15817 15.625,0 q 8.77193,0 13.08936,3.66639 4.31744,3.6664 4.31744,11.06771 0,4.83142 -2.26151,8.01809 -2.22725,3.18668 -6.51042,4.42023 z m -17.33827,-21.48437 0,18.16064 8.7034,0 q 5.00274,0 7.53838,-2.29578 2.5699,-2.33005 2.5699,-6.81881 0,-4.48876 -2.5699,-6.75027 -2.53564,-2.29578 -7.53838,-2.29578 l -8.7034,0 z"/>
		<path d="m 939.77522,245.66064 -9.38871,25.45915 18.81168,0 -9.42297,-25.45915 z m -3.90625,-6.81881 7.84676,0 19.49699,51.15817 -7.19572,0 -4.66009,-13.12363 -23.06058,0 -4.66009,13.12363 -7.29852,0 19.53125,-51.15817 z"/>
		<path d="m 975.64831,238.84183 32.34649,0 0,5.82511 -25.42489,0 0,15.14529 24.36269,0 0,5.82511 -24.36269,0 0,18.53755 26.04169,0 0,5.82511 -32.96329,0 0,-51.15817 z"/>
		<path d="m 1025.0562,238.84183 6.9216,0 0,45.33306 24.9109,0 0,5.82511 -31.8325,0 0,-51.15817 z"/>
		<path d="m 1069.1187,238.84183 6.9216,0 0,51.15817 -6.9216,0 0,-51.15817 z"/>
	</g>
</svg>
